<?xml version="1.0" encoding="utf-8"?>
<!-- Generator: Adobe Illustrator 18.1.1, SVG Export Plug-In . SVG Version: 6.00 Build 0)  -->
<!DOCTYPE svg PUBLIC "-//W3C//DTD SVG 1.1//EN" "http://www.w3.org/Graphics/SVG/1.1/DTD/svg11.dtd">
<svg version="1.1" id="Layer_1" xmlns="http://www.w3.org/2000/svg" xmlns:xlink="http://www.w3.org/1999/xlink" x="0px" y="0px"
	 viewBox="206.5 396 195 158.3" enable-background="new 206.5 396 195 158.3" xml:space="preserve">
<path fill="#2A0C59" d="M370.2,447H237.8c-10.9,0-19.8-8.8-19.8-19.8v0c0-10.9,8.8-19.8,19.8-19.8h132.5c10.9,0,19.8,8.8,19.8,19.8
	v0C390,438.2,381.2,447,370.2,447z"/>
<path fill="#2A0C59" d="M370.2,494.8H237.8c-10.9,0-19.8-8.8-19.8-19.8v0c0-10.9,8.8-19.8,19.8-19.8h132.5
	c10.9,0,19.8,8.8,19.8,19.8v0C390,485.9,381.2,494.8,370.2,494.8z"/>
<path fill="#2A0C59" d="M370.2,542.8H237.8c-10.9,0-19.8-8.8-19.8-19.8l0,0c0-10.9,8.8-19.8,19.8-19.8h132.5
	c10.9,0,19.8,8.8,19.8,19.8l0,0C390,533.9,381.2,542.8,370.2,542.8z"/>
</svg>
