<?xml version="1.0" encoding="utf-8"?>
<!-- Generator: Adobe Illustrator 18.1.1, SVG Export Plug-In . SVG Version: 6.00 Build 0)  -->
<!DOCTYPE svg PUBLIC "-//W3C//DTD SVG 1.1//EN" "http://www.w3.org/Graphics/SVG/1.1/DTD/svg11.dtd">
<svg version="1.1" id="Layer_1" xmlns="http://www.w3.org/2000/svg" xmlns:xlink="http://www.w3.org/1999/xlink" x="0px" y="0px"
	 viewBox="284.1 792.1 82.6 82.5" enable-background="new 284.1 792.1 82.6 82.5" xml:space="preserve">
<rect x="289.6" y="797.6" fill="#FEA244" width="71.5" height="71.5"/>
<path fill="#0A0104" d="M349.8,824.8h-45.4c-3.7,0-3.8-13.6,0-13.6h45.4C353.6,811.2,353.6,824.8,349.8,824.8z"/>
<path fill="#0A0104" d="M349.8,841.2h-45.4c-3.7,0-3.8-13.6,0-13.6h45.4C353.6,827.6,353.6,841.2,349.8,841.2z"/>
<path fill="#0A0104" d="M349.8,857.6h-45.4c-3.7,0-3.8-13.6,0-13.6h45.4C353.6,844,353.6,857.6,349.8,857.6z"/>
<path fill="#E75F14" d="M347,822.7h-45.4c-3.7,0-3.8-13.6,0-13.6H347C350.8,809.1,350.8,822.7,347,822.7z"/>
<path fill="#E75F14" d="M347,839.1h-45.4c-3.7,0-3.8-13.6,0-13.6H347C350.8,825.5,350.8,839.1,347,839.1z"/>
<path fill="#E75F14" d="M347,855.6h-45.4c-3.7,0-3.8-13.6,0-13.6H347C350.8,842,350.8,855.6,347,855.6z"/>
<rect x="289.6" y="792.1" fill="#E75F14" width="71.5" height="5.5"/>
<rect x="289.6" y="869" fill="#0A0104" width="71.5" height="5.5"/>
<rect x="284.1" y="797.6" fill="#E75F14" width="5.5" height="71.5"/>
<rect x="361.1" y="797.6" fill="#0A0104" width="5.5" height="71.5"/>
<rect x="294.4" y="802.4" fill="#0A0104" width="5.4" height="5.4"/>
<rect x="350.8" y="802.4" fill="#0A0104" width="5.4" height="5.4"/>
<rect x="294.4" y="859.1" fill="#0A0104" width="5.4" height="5.4"/>
<rect x="350.8" y="859.1" fill="#0A0104" width="5.4" height="5.4"/>
</svg>
